<svg id="Filled" height="512" viewBox="0 0 512 512" width="512" xmlns="http://www.w3.org/2000/svg"><path d="m64 224v-56a120.005 120.005 0 0 1 192-96 120.005 120.005 0 0 1 192 96v56z" fill="#351c05"/><ellipse cx="80" cy="256" fill="#a3633c" rx="32" ry="40"/><ellipse cx="432" cy="256" fill="#a3633c" rx="32" ry="40"/><path d="m416 208c-65.649-36.825-121.914-47.58-160-96-38.086 48.421-94.351 59.176-160 96-6.424 20.349-8 41.12-8 64 0 106.039 75.216 192 168 192s168-85.961 168-192c0-22.88-1.576-43.651-8-64z" fill="#a36f58"/><ellipse cx="152" cy="272" fill="#a25e3c" rx="24" ry="16"/><ellipse cx="360" cy="272" fill="#a25e3c" rx="24" ry="16"/><path d="m152 240a8 8 0 0 0 8-8 24.027 24.027 0 0 1 24-24 8 8 0 0 0 0-16 40.045 40.045 0 0 0 -40 40 8 8 0 0 0 8 8z"/><path d="m328 192a8 8 0 0 0 0 16 24.028 24.028 0 0 1 24 24 8 8 0 0 0 16 0 40.045 40.045 0 0 0 -40-40z"/><path d="m248 272h16a8 8 0 0 0 0-16h-6.556l6.447-38.685a8 8 0 1 0 -15.782-2.63l-8 48a8 8 0 0 0 7.891 9.315z"/><path d="m168 272h-16a8 8 0 0 0 0 16h16a8 8 0 0 0 0-16z"/><path d="m360 272h-16a8 8 0 0 0 0 16h16a8 8 0 0 0 0-16z"/><path d="m456 217.626v-49.626a128.146 128.146 0 0 0 -128-128 126.85 126.85 0 0 0 -72 22.155 126.848 126.848 0 0 0 -72-22.155 128.145 128.145 0 0 0 -128 128v49.626c-9.709 8.766-16 22.7-16 38.374 0 26.468 17.944 48 40 48 .744 0 1.487-.038 2.228-.087 5.768 41.113 22.644 79.046 48.958 109.119 33.272 38.027 77.599 58.968 124.814 58.968s91.542-20.941 124.814-58.968c26.314-30.073 43.191-68.006 48.958-109.119.741.049 1.484.087 2.228.087 22.056 0 40-21.532 40-48 0-15.67-6.291-29.608-16-38.374zm-384-49.626a112.005 112.005 0 0 1 179.2-89.609 8 8 0 0 0 9.61 0 112.005 112.005 0 0 1 179.19 89.609v40.966a33.585 33.585 0 0 0 -8-.966 33.944 33.944 0 0 0 -7.4.84c-.315-1.082-.629-2.165-.971-3.248a8 8 0 0 0 -3.715-4.57c-21.437-12.024-41.455-21.111-60.814-29.9-38.74-17.586-72.2-32.773-96.812-64.069a8 8 0 0 0 -12.576 0c-24.616 31.3-58.072 46.483-96.812 64.069-19.358 8.788-39.377 17.875-60.814 29.9a8 8 0 0 0 -3.715 4.57c-.342 1.083-.656 2.166-.971 3.248a33.951 33.951 0 0 0 -7.4-.84 33.585 33.585 0 0 0 -8 .966zm8 120c-13.234 0-24-14.355-24-32s10.766-32 24-32a18.077 18.077 0 0 1 3.7.4c-3.157 16.859-3.7 33.189-3.7 47.6q0 8.043.559 15.978c-.186.006-.372.022-.559.022zm176 168c-88.224 0-160-82.542-160-184 0-24.689 2.021-42.457 6.716-58.582 19.809-10.935 38.6-19.465 56.8-27.726 37.561-17.05 70.391-31.955 96.486-61.237 26.1 29.282 58.925 44.187 96.486 61.237 18.2 8.261 36.989 16.791 56.8 27.726 4.691 16.126 6.712 33.894 6.712 58.582 0 101.458-71.775 184-160 184zm176-168c-.187 0-.373-.016-.559-.022q.548-7.933.559-15.978c0-14.411-.543-30.74-3.7-47.6a18.077 18.077 0 0 1 3.7-.4c13.233 0 24 14.355 24 32s-10.767 32-24 32z"/><circle cx="192" cy="240" r="16"/><circle cx="320" cy="240" r="16"/><path d="m290.258 306.43c-6.837 7.048-15.718 13.57-34.258 13.57s-27.421-6.522-34.257-13.57a8 8 0 0 0 -11.486 11.14c12.364 12.746 26.471 18.43 45.743 18.43s33.379-5.684 45.742-18.43a8 8 0 1 0 -11.484-11.14z"/></svg>