<svg id="Filled" height="512" viewBox="0 0 512 512" width="512" xmlns="http://www.w3.org/2000/svg"><path d="m272 120a71.931 71.931 0 0 0 -140.129-22.94 71.966 71.966 0 1 0 59.407 80.6z" fill="#aa9b8b"/><path d="m240 120a71.931 71.931 0 0 1 140.129-22.94 71.966 71.966 0 1 1 -59.407 80.6z" fill="#aa9b8b"/><ellipse cx="80" cy="256" fill="#fedac5" rx="32" ry="40"/><ellipse cx="432" cy="256" fill="#fedac5" rx="32" ry="40"/><ellipse cx="256" cy="272" fill="#fee8d6" rx="168" ry="192"/><ellipse cx="152" cy="272" fill="#fed4c5" rx="24" ry="16"/><ellipse cx="360" cy="272" fill="#fed4c5" rx="24" ry="16"/><path d="m240 280h32a48 48 0 0 1 48 48 0 0 0 0 1 0 0h-128a0 0 0 0 1 0 0 48 48 0 0 1 48-48z" fill="#aa9b8b"/><path d="m455.243 216.972a79.984 79.984 0 0 0 -63.243-128.972c-2.161 0-4.369.1-6.658.315a79.89 79.89 0 0 0 -129.342-25.445 79.889 79.889 0 0 0 -129.341 25.445c-2.288-.215-4.496-.315-6.659-.315a79.978 79.978 0 0 0 -63.239 128.969c-10.137 8.716-16.761 22.958-16.761 39.031 0 26.468 17.944 48 40 48 .744 0 1.487-.038 2.228-.087 5.772 41.113 22.644 79.047 48.958 109.119 33.272 38.027 77.599 58.968 124.814 58.968s91.542-20.941 124.814-58.968c26.314-30.072 43.191-68.006 48.958-109.119.741.049 1.484.087 2.228.087 22.056 0 40-21.532 40-48 0-16.071-6.622-30.311-16.757-39.028zm-375.243 55.028q0 8.043.559 15.978c-.186.006-.372.022-.559.022-13.234 0-24-14.355-24-32s10.766-32 24-32a18.057 18.057 0 0 1 4.934.7 227.7 227.7 0 0 0 -4.934 47.3zm0-64a33.612 33.612 0 0 0 -8.937 1.223 63.792 63.792 0 0 1 59.493-104.271 8 8 0 0 0 8.9-5.341 63.9 63.9 0 0 1 103.488-27.072c-42.287 3.5-81.572 23.929-111.758 58.429a205.233 205.233 0 0 0 -42.374 78.219 33.96 33.96 0 0 0 -8.812-1.187zm176 248c-88.224 0-160-82.542-160-184s71.776-184 160-184 160 82.542 160 184-71.775 184-160 184zm124.814-325.032c-30.186-34.5-69.471-54.935-111.758-58.429a63.9 63.9 0 0 1 103.492 27.072 8 8 0 0 0 8.894 5.341 63.937 63.937 0 0 1 59.5 104.271 33.28 33.28 0 0 0 -17.748-.036 205.236 205.236 0 0 0 -42.38-78.219zm51.186 157.032c-.187 0-.373-.016-.559-.022q.548-7.933.559-15.978a227.7 227.7 0 0 0 -4.934-47.3 18.057 18.057 0 0 1 4.934-.7c13.233 0 24 14.355 24 32s-10.767 32-24 32z"/><path d="m152 240a8 8 0 0 0 8-8 24.027 24.027 0 0 1 24-24 8 8 0 0 0 0-16 40.045 40.045 0 0 0 -40 40 8 8 0 0 0 8 8z"/><path d="m328 192a8 8 0 0 0 0 16 24.028 24.028 0 0 1 24 24 8 8 0 0 0 16 0 40.045 40.045 0 0 0 -40-40z"/><circle cx="192" cy="240" r="16"/><circle cx="320" cy="240" r="16"/><path d="m272 272h-8a8 8 0 0 0 0-16h-6.556l6.447-38.685a8 8 0 1 0 -15.782-2.63l-8 48a8 8 0 0 0 7.891 9.315h-8a56.063 56.063 0 0 0 -56 56 8 8 0 0 0 8 8h128a8 8 0 0 0 8-8 56.063 56.063 0 0 0 -56-56zm-71.2 48a40.071 40.071 0 0 1 39.2-32h32a40.071 40.071 0 0 1 39.2 32z"/></svg>