<?xml version="1.0"?>
<svg xmlns="http://www.w3.org/2000/svg" id="Filled" viewBox="0 0 512 512" width="512" height="512"><path d="M440,248,423.548,95.353A64,64,0,0,0,360.135,40H151.865A64,64,0,0,0,88.452,95.353L72,248Z" style="fill:#351c05"/><ellipse cx="80" cy="272" rx="32" ry="40" style="fill:#dda37b"/><ellipse cx="432" cy="272" rx="32" ry="40" style="fill:#dda37b"/><path d="M88,272.763c0-62.44,28.44-119.581,72-152.763,19.4,21.651,55.523,38.261,96.889,38.261,40.85,0,75.547-17.056,95.111-38.261,42.977,33.264,72,90.818,72,152.763V280c0,106.039-75.216,192-168,192S88,386.039,88,280Z" style="fill:#e1b293"/><ellipse cx="152" cy="279.853" rx="24" ry="16.147" style="fill:#dd9c7b"/><ellipse cx="360" cy="280" rx="24" ry="16" style="fill:#dd9c7b"/><path d="M240,288h32a48,48,0,0,1,48,48v0a0,0,0,0,1,0,0H192a0,0,0,0,1,0,0v0A48,48,0,0,1,240,288Z" style="fill:#351c05"/><path d="M429.459,224.857,415.607,96.325A56.207,56.207,0,0,0,360.135,48H151.865A56.207,56.207,0,0,0,96.393,96.325L82.541,224.857l-15.909-1.714L80.5,94.5c.008-.074.017-.149.027-.224A72.267,72.267,0,0,1,151.865,32h208.27a72.267,72.267,0,0,1,71.34,62.271c.01.075.019.15.027.224l13.866,128.648Z"/><path d="M152,248a8,8,0,0,1-8-8,40.045,40.045,0,0,1,40-40,8,8,0,0,1,0,16,24.027,24.027,0,0,0-24,24A8,8,0,0,1,152,248Z"/><path d="M360,248a8,8,0,0,1-8-8,24.027,24.027,0,0,0-24-24,8,8,0,0,1,0-16,40.045,40.045,0,0,1,40,40A8,8,0,0,1,360,248Z"/><path d="M264,280H248a8,8,0,0,1-7.891-9.315l8-48a8,8,0,1,1,15.782,2.63L257.444,264H264a8,8,0,0,1,0,16Z"/><path d="M168,296H152a8,8,0,0,1,0-16h16a8,8,0,0,1,0,16Z"/><path d="M360,296H344a8,8,0,0,1,0-16h16a8,8,0,0,1,0,16Z"/><path d="M432,312a34.078,34.078,0,0,1-10.449-1.644l4.9-15.232A18.115,18.115,0,0,0,432,296c13.234,0,24-14.355,24-32s-10.766-32-24-32a19.044,19.044,0,0,0-11.313,3.835l-9.375-12.967A35.2,35.2,0,0,1,432,216c22.056,0,40,21.532,40,48S454.056,312,432,312Z"/><path d="M80,312c-22.056,0-40-21.532-40-48s17.944-48,40-48a35.2,35.2,0,0,1,20.688,6.868l-9.375,12.967A19.044,19.044,0,0,0,80,232c-13.234,0-24,14.355-24,32s10.766,32,24,32a18.115,18.115,0,0,0,5.551-.876l4.9,15.232A34.078,34.078,0,0,1,80,312Z"/><circle cx="192" cy="248" r="16"/><circle cx="320" cy="248" r="16"/><path d="M320,344H192a8,8,0,0,1-8-8,56.063,56.063,0,0,1,56-56h32a56.063,56.063,0,0,1,56,56A8,8,0,0,1,320,344ZM200.8,328H311.2A40.071,40.071,0,0,0,272,296H240A40.071,40.071,0,0,0,200.8,328Z"/><path d="M256,480c-47.215,0-91.542-20.941-124.814-58.967C98.178,383.31,80,333.224,80,280c0-66.824,29.187-128.961,78.076-166.216a8,8,0,0,1,11.335,1.68C185.437,137.659,219.425,152,256,152s70.563-14.341,86.589-36.536a8,8,0,0,1,11.335-1.68C402.813,151.039,432,213.176,432,280c0,53.224-18.178,103.31-51.186,141.033C347.542,459.059,303.215,480,256,480ZM161.71,131.362C120.43,166.025,96,220.973,96,280c0,101.458,71.776,184,160,184s160-82.542,160-184c0-59.027-24.43-113.975-65.71-148.638C329.857,154.136,294.619,168,256,168S182.143,154.136,161.71,131.362Z"/></svg>
