<svg id="Filled" height="512" viewBox="0 0 512 512" width="512" xmlns="http://www.w3.org/2000/svg"><ellipse cx="80" cy="232" fill="#a3633c" rx="32" ry="40"/><ellipse cx="432" cy="232" fill="#a3633c" rx="32" ry="40"/><ellipse cx="256" cy="248" fill="#a36f58" rx="168" ry="192"/><rect fill="#58453f" height="200" rx="44" width="112" x="200" y="256"/><ellipse cx="152" cy="248" fill="#a25e3c" rx="24" ry="16"/><ellipse cx="360" cy="248" fill="#a25e3c" rx="24" ry="16"/><path d="m152 216a8 8 0 0 0 8-8 24.028 24.028 0 0 1 24-24 8 8 0 0 0 0-16 40.045 40.045 0 0 0 -40 40 8 8 0 0 0 8 8z"/><path d="m328 168a8 8 0 0 0 0 16 24.028 24.028 0 0 1 24 24 8 8 0 0 0 16 0 40.045 40.045 0 0 0 -40-40z"/><path d="m432 184a33.946 33.946 0 0 0 -8.811 1.187 205.236 205.236 0 0 0 -42.375-78.219c-33.272-38.027-77.598-58.968-124.814-58.968s-91.542 20.941-124.814 58.968a205.236 205.236 0 0 0 -42.375 78.219 33.946 33.946 0 0 0 -8.811-1.187c-22.056 0-40 21.532-40 48s17.944 48 40 48c.74 0 1.477-.038 2.214-.086a213.362 213.362 0 0 0 31.879 86.44c21.369 33.039 50.491 57.431 84.368 70.717a52.036 52.036 0 0 0 45.539 26.929h24a52.036 52.036 0 0 0 45.539-26.929c33.877-13.285 63-37.676 84.366-70.717a213.34 213.34 0 0 0 31.881-86.44c.737.048 1.474.086 2.214.086 22.056 0 40-21.532 40-48s-17.944-48-40-48zm-352 80c-13.233 0-24-14.355-24-32s10.767-32 24-32a18.057 18.057 0 0 1 4.934.7 227.7 227.7 0 0 0 -4.934 47.3q0 8.04.549 15.979c-.183.005-.366.021-.549.021zm224 148a36.04 36.04 0 0 1 -36 36h-24a36.04 36.04 0 0 1 -36-36v-112a36.04 36.04 0 0 1 36-36h24a36.04 36.04 0 0 1 36 36zm80.471-54.334c-16.928 26.173-39.087 46.375-64.7 59.146.146-1.586.231-3.189.231-4.812v-112a52.059 52.059 0 0 0 -52-52h-4a8 8 0 0 0 0-16h-6.557l6.449-38.685a8 8 0 0 0 -15.784-2.63l-8 48a8 8 0 0 0 7.89 9.315h-4a52.059 52.059 0 0 0 -52 52v112c0 1.623.085 3.226.231 4.812-25.616-12.772-47.775-32.974-64.7-59.148-20.631-31.892-31.531-69.813-31.531-109.664 0-101.458 71.775-184 160-184s160 82.542 160 184c0 39.852-10.9 77.773-31.529 109.666zm47.529-93.666c-.183 0-.366-.016-.549-.021q.549-7.935.549-15.979a227.7 227.7 0 0 0 -4.934-47.3 18.057 18.057 0 0 1 4.934-.7c13.233 0 24 14.355 24 32s-10.767 32-24 32z"/><circle cx="192" cy="216" r="16"/><circle cx="320" cy="216" r="16"/><path d="m284.024 281.086a8 8 0 0 0 -10.938 2.89c-5.102 8.765-9.732 12.024-17.086 12.024s-11.984-3.259-17.086-12.024a8 8 0 1 0 -13.828 8.048c4.99 8.576 13.625 19.976 30.914 19.976 8.28 0 20.494-2.07 30.914-19.976a8 8 0 0 0 -2.89-10.938z"/></svg>