<?xml version="1.0"?>
<svg xmlns="http://www.w3.org/2000/svg" id="Filled" viewBox="0 0 512 512" width="512" height="512"><circle cx="124" cy="324" r="92" style="fill:#ceae30"/><circle cx="388" cy="324" r="92" style="fill:#ceae30"/><path d="M64,224V168A120.005,120.005,0,0,1,256,72,120.005,120.005,0,0,1,448,168v56Z" style="fill:#ceae30"/><ellipse cx="80" cy="256" rx="32" ry="40" style="fill:#e6bfa5"/><ellipse cx="432" cy="256" rx="32" ry="40" style="fill:#e6bfa5"/><path d="M424,216c-65.649-36.825-129.914-87.58-168-136-38.086,48.421-102.351,99.176-168,136v56c0,106.039,75.216,192,168,192s168-85.961,168-192Z" style="fill:#e6cbb8"/><ellipse cx="152" cy="272" rx="24" ry="16" style="fill:#e6b7a5"/><ellipse cx="360" cy="272" rx="24" ry="16" style="fill:#e6b7a5"/><path d="M152,239.707a8,8,0,0,1-8-8,40.045,40.045,0,0,1,40-40,8,8,0,0,1,0,16,24.027,24.027,0,0,0-24,24A8,8,0,0,1,152,239.707Z"/><path d="M360,240a8,8,0,0,1-8-8,24.027,24.027,0,0,0-24-24,8,8,0,0,1,0-16,40.045,40.045,0,0,1,40,40A8,8,0,0,1,360,240Z"/><path d="M264,272H248a8,8,0,0,1-7.891-9.315l8-48a8,8,0,0,1,15.782,2.63L257.444,256H264a8,8,0,0,1,0,16Z"/><path d="M256,336c-30.115,0-45.167-19.226-54.915-35.976a8,8,0,0,1,13.83-8.048C226.651,312.143,238.17,320,256,320s29.349-7.857,41.085-28.024a8,8,0,1,1,13.83,8.048c-6.8,11.684-13.626,19.809-21.48,25.57C279.889,332.6,268.952,336,256,336Z"/><path d="M416,211.971A34.556,34.556,0,0,1,432,208a35.194,35.194,0,0,1,20.7,6.875C464.783,223.62,472,238.994,472,256c0,26.467-17.944,48-40,48a34.055,34.055,0,0,1-10.45-1.645l4.9-15.231A18.074,18.074,0,0,0,432,288c13.234,0,24-14.355,24-32,0-11.711-4.86-22.5-12.683-28.163a18.606,18.606,0,0,0-22.629,0Z"/><path d="M91.312,227.834a18.606,18.606,0,0,0-22.629,0C60.86,233.5,56,244.288,56,256c0,17.645,10.766,32,24,32a18.074,18.074,0,0,0,5.55-.876l4.9,15.231A34.055,34.055,0,0,1,80,304c-22.056,0-40-21.533-40-48,0-17.007,7.217-32.381,19.305-41.126A35.2,35.2,0,0,1,80,208a33.958,33.958,0,0,1,8,.958Z"/><circle cx="192" cy="240" r="16" style="fill:none"/><circle cx="320" cy="240" r="16" style="fill:none"/><circle cx="192" cy="240" r="16"/><circle cx="320" cy="240" r="16"/><path d="M256,472c-47.215,0-91.542-20.942-124.814-58.967C98.178,375.31,80,325.224,80,272V216a8,8,0,0,1,4.086-6.977C151.6,171.152,213.517,121.07,249.712,75.054a8,8,0,0,1,12.576,0c36.194,46.016,98.11,96.1,165.626,133.969A8,8,0,0,1,432,216v56c0,53.224-18.178,103.31-51.186,141.033C347.542,451.058,303.215,472,256,472ZM96,220.667V272c0,101.458,71.776,184,160,184s160-82.542,160-184V220.667c-63.942-36.445-122.76-83.548-160-127.982C218.76,137.12,159.942,184.222,96,220.667Z"/><path d="M124,424A100.012,100.012,0,0,1,41.5,267.473l13.191,9.054A84.013,84.013,0,0,0,124,408a84.572,84.572,0,0,0,18.268-1.99l3.464,15.62A100.529,100.529,0,0,1,124,424Z"/><path d="M388,424a100.529,100.529,0,0,1-21.732-2.37l3.464-15.62A84.083,84.083,0,0,0,472,324a83.529,83.529,0,0,0-14.69-47.473l13.191-9.054A100.012,100.012,0,0,1,388,424Z"/><path d="M456,224H440V168A112.005,112.005,0,0,0,260.805,78.391L256,82,251.2,78.391A112.005,112.005,0,0,0,72,168v56H56V168A128.144,128.144,0,0,1,184,40a126.831,126.831,0,0,1,72,22.156A126.831,126.831,0,0,1,328,40,128.144,128.144,0,0,1,456,168Z"/></svg>
